<svg xmlns="http://www.w3.org/2000/svg" xmlns:xlink="http://www.w3.org/1999/xlink" viewBox="0 0 1348.88627 1122.96007"><defs><style>.fe68ee09-4cd6-4810-a431-70252eb2c437{fill:none;}.eca54ada-f3e7-4ed0-a514-bf806b465f8e{fill:#333f48;}.ef9fa18f-b615-46ce-92fb-28335989370b{fill:url(#b8871872-1f05-43fc-8270-0b892bb77479);}.e68d14cd-3264-4f06-9d98-fb6e111a043e{fill:url(#bfcc1b71-9d43-4559-af1b-a698552f303a);}.e28a8312-45f5-405f-b25d-22e369130717{fill:url(#b46f0bd6-d576-4970-90e7-283abaecba50);}.f24ac332-489c-41cf-a18a-5cef50c1c12a{fill:url(#b23e9f24-fa32-46d1-b2b2-b4a481d7567f);}.a39df6b6-5d39-49cf-b520-5c00f9a7457b{fill:url(#a35ade26-187d-41fe-a4a2-d941cf94562b);}.ba30a0a2-18ba-479b-bfc9-b4641d3d3962{fill:url(#a78b83d7-ffc9-4963-8584-ab4199aec5e7);}.a4da3083-8faa-4be5-aebe-568d36874eff{fill:url(#b0a3a3f8-e0ae-4330-a5af-6d797b292736);}.b56403eb-1b4b-4182-8986-bd529bf40a4d{fill:url(#b4d6f616-b024-4dea-af8f-3f3322bf5b52);}.a20e3824-3006-4998-9da1-c0436675a72d{fill:url(#ed0ded00-f4c5-44bd-9000-b007b5c6f570);}.aec961f5-8798-4808-aaee-c866b5c62ab0{fill:url(#aa50d6b4-d358-4f94-8995-943bfd5d4c6e);}.bc9c88ad-18c5-482b-b530-8d6e294ae927{fill:url(#f904ca0c-8f51-406f-84df-c9ce8d069a5b);}.a656539b-a4cf-4823-bc6d-bc40a82f043a{fill:url(#e548c4b6-52e6-4877-a14b-3a13d5e46d65);}.f8634f70-3d16-48d9-af4a-c9f940f813f9{fill:url(#b841788b-50ae-4ae4-9156-0bc551610657);}.a13fc718-ba1b-4b87-8c3b-0842c0a7b32f{fill:url(#aca7d513-5edf-4045-9ed0-70434ff8174d);}.ee5cd48c-c2dc-46c6-9f7a-8425e6efef22{fill:url(#b109517c-81f8-4099-9bd5-4fa455d539b8);}.eacc6e66-99d2-45c7-94ba-d6b213450f12{fill:url(#feab53ea-5b7f-4167-9b0e-b47b2773472b);}.e9c41990-3fdb-430d-b852-1f929490a826{fill:url(#ab28cab5-d753-45d4-ad7e-235c530530f9);}.fa80b5af-f46e-4867-b489-dc7b34a07c50{fill:url(#ade516b6-84aa-45fd-8bce-d8aeb67518ff);}.adc8407c-6b2a-4c42-bba4-0d183c2b3dfc{fill:url(#accf5b98-2306-49e3-a4de-28b56f97f792);}.b9a12b57-889e-4e09-a985-09df7c47f43f{fill:url(#a745ac5e-1ac8-4102-945b-73501d4f7e6a);}.faa21332-8b7e-4ca8-9008-474fe272bb1b{fill:url(#f6616a2c-82d9-49bf-bafe-2bf97389dbcf);}.b8a8066f-568a-47e6-8546-7e0232719953{fill:url(#b971a3c8-b074-4e69-8e3d-d9ad3a6bd2a7);}.a10da1b0-80ae-4dbe-badf-c9ef2c835d21{fill:url(#e040139f-81ed-488f-862e-afb300366225);}.e804bdca-3d1c-4ca4-a91b-e4ed15db6398{fill:url(#ac407559-06ad-4388-a95b-183624d2c4fe);}.e671ea00-02ea-4eee-bc73-acb8206be196{fill:url(#b1b10844-8717-44ec-a0c5-a9e81a236660);}.b7431322-b115-4859-8cc3-590a5b74db77{fill:url(#fea32f6a-b3d2-44f4-b7ad-2d5d53717cbe);}.ecad8ac2-ae75-4bbe-80ef-bab5b276bcdb{fill:url(#fd59858f-efc3-4348-8499-b0bbc4cb84b4);}.ad3a5bd0-36c7-4f32-9d85-db0f359e4e6a{fill:url(#f6aeb641-94c8-4f62-a8c2-b97e969e26a9);}.e2b7c785-40b8-45ad-a55f-8f194b0800c6{fill:url(#b325feb2-3c24-4153-8365-de7c94fbd27f);}.fce67d2b-417a-43e8-8871-f393d0b451cb{fill:url(#a0ecc05c-f35c-47cb-9b01-3a2d4cbc89e2);}.af7d40c5-8016-4dd0-98e2-f000ac158e63{fill:url(#baf2085e-1186-41b9-bdc8-9f756d267e42);}.b340afd3-532c-4e24-995f-3970abfb0374{fill:url(#ef8f63c7-fee9-4007-8084-62492b8e55fd);}.ba6c2596-8b04-48b4-bcad-ac4ce7169835{fill:url(#efe2c71b-517d-43ba-85b0-eec352ed5658);}.a70dd437-22c6-4c20-9f3e-3641bd0ec880{fill:url(#ad25e803-0eaf-4824-87c0-63f5ba8b0870);}.fca5e5bb-3375-4260-b14a-3f86fca79d76{fill:url(#f4c51d08-5ad1-45df-9a76-1e676812d9be);}.b5c32af5-c6ac-4287-a082-d3cd68e28995{fill:url(#b57a1e49-1caf-4087-8d79-faf6f4da13b0);}.f87fc7ad-3a68-444c-a922-4d99ea5df23b{fill:url(#bc98a3be-19ce-4095-9415-0cb55037a897);}.f1a387ef-f499-456e-b9e9-9498e563df06{fill:url(#ffa653a9-f745-4962-b01f-6b3165458771);}.b522c7de-d475-4479-b500-f6302a9ecbbe{fill:url(#ebfb0e80-b2c9-407c-a291-71cdd808c7b1);}.b212a7d7-f3d0-4f1a-8760-4dfabf417eab{fill:url(#b496d33c-365d-4754-b055-cf98ccd14093);}.eb097cfd-a3de-41d7-ace7-ebf1d4c89f1d{fill:url(#b139da55-14ef-470e-b658-b66eeb238548);}.f811d8fb-33ac-42dc-a3bf-72374684805e{fill:url(#e3a0d05d-3cb4-42e7-a71a-63da4cc53310);}.e703fa84-3d1f-4b82-98b0-c98d3095104c{fill:url(#e327bdcd-aacd-4fb0-b745-97b230101cba);}.ed7c1ec3-843d-40fc-964f-2a4c9594a9f5{fill:url(#a2e6dbf0-03d4-48a2-ad1a-c86a958e3d2a);}.e6b545c8-a989-4be7-8436-c0062719c627{fill:url(#e7cbcb35-5bf7-4779-99fd-b5e22369bc1d);}.f802685d-71b6-4c7d-a1a4-1b825f17e55a{fill:url(#ec0aa14f-9673-4a7e-9ece-6a7f94939faf);}.ab2107f8-4a9d-4fad-bdd8-9120e6147a3f{fill:url(#bad2fd18-a944-400c-87cb-7f9f92497ef3);}.fb73b093-f8b5-4356-bd0b-30f33d825780{fill:url(#bd32c35c-992b-405a-8653-8480f16caab0);}.f80a87e7-b631-4dc5-9ff1-b42c874e7e1d{fill:url(#b2b30a31-5203-4abb-a211-538445c0f6a7);}.eb5f93c1-0eb2-427f-96da-d0d6f7c56222{fill:url(#e5ebfefc-73d0-4032-9417-f2439df33090);}.bcf25d57-ec14-4ce8-8e95-22f476c97a8d{fill:#008c85;}.afd3badb-00b2-436f-b117-4128749215d9{fill:#00948c;}.a038733d-1150-47cf-a67d-9311b797b8cc{fill:#007573;}.b8453c3b-a0c6-451b-9d4b-6869db9bd765{fill:#004452;}.fe3345c2-f773-436c-8c57-63081c4c99de{fill:#007a77;}.aa54b28e-ab67-42cc-b5b4-a8fa984fdc95{fill:#008383;}.be3405ed-a777-4234-8be8-d9f961ba3f93{fill:#008081;}.f9d4e077-8a49-4f49-b62e-5f605347eeb3{fill:#006d6d;}.bddc2b5e-7e96-415b-8eb2-41c76d4f6225{fill:#00817c;}.a120b7f5-0c32-4473-a4b8-1612bc0be85e{fill:#00827d;}.e925dff4-c028-48b7-aba6-c1460fbbc76b{fill:#00847f;}.f59b0235-3023-4df9-8330-cea108f4ef95{fill:#008681;}.a30aaa4d-f4dc-44e3-b7ab-8a90ac92d602{fill:#008a83;}.adb4b106-8f9c-489e-bf82-c8fa447ee649{fill:#008b84;}.ec9c074e-39d3-4cea-b421-e3589ecc6446{fill:#00958d;}.e7c264a4-c813-4ab5-8588-9526e529d6d7{fill:#00978f;}.b0d1f823-4a97-4447-b5e7-196a8560ed08{fill:#009991;}.a08d9517-2395-4dea-8486-2eafa25321e1{fill:#00968e;}.b13b2b01-78d9-42fa-bc4e-bfad7f34bbf6{fill:#007b7e;}.a249cb4f-7c98-4da9-8dd3-a0f365c7879c{fill:#007d7f;}.a0d07397-541e-4052-b274-6e0153c1d316{fill:#008886;}.fea36ee4-a0fa-4e8f-b1a5-33aac40a6e17{fill:#00948b;}.edf22703-3fd2-4d8f-9184-83cc52025d27{fill:#009c92;}.bda7a581-7e7d-49c2-a112-0a6be3da7013{fill:#00a298;}.bdd7c6b6-c292-44d2-8586-f6c6947c3e41{fill:#00a49a;}.a84af963-be6b-41bb-9e1c-4afeff873c46,.b0897fc9-4095-44b8-a595-843818400923{fill:#007b78;}.b00d6568-5251-4e93-8481-ef00c7c72635{fill:#006769;}.ba3defda-14a0-4dfa-844a-6ad8562e3eaf{fill:#006265;}.a63598c2-2a69-4a74-9c1e-f84dd9cbb245{fill:#008782;}.ea78186b-5779-4056-8f94-62363a698313{fill:#009990;}.b03b5f45-4e86-4dc1-9d8d-1f79c46337e3{fill:#004553;}.a42ee6ba-961c-4de8-b22f-2a1c61b4b621{fill:#004151;}.fc7bd62b-9180-4110-8dfa-bb52ba22bd85{fill:#003e50;}.a0186701-c306-4b9e-ba89-5b4d56203d3b{fill:#004e58;}.a55a34be-7de4-49d6-83c8-d90ffe46fe07{fill:#00535c;}.fe9f81ce-074c-48d3-bb1e-a09faa3733e3{fill:#005c5f;}.bf4cbf12-7c12-45c2-9c81-57cd37f19fcb{fill:#113048;}.b845e6fc-22c8-4ac9-a87d-b2b884109d62{fill:#0d324a;}.fdecf3be-cd36-4958-ab60-d5d3b003c52b{fill:#009087;}.eab5b1e4-5ac9-4eb7-958c-55f8e06a034d{fill:#008e8a;}.f632c6ec-e7d5-453f-881e-bf6b57735fe4{fill:#00938c;}.e66dfd5d-9522-4a7d-bdcf-c14d9a4d3ab6{fill:#00716f;}.b148834d-a131-4ace-a7fe-91b3aa9ec4e3{fill:#00686a;}.e6452a1e-5cce-4622-8b19-09e44531d20c{fill:#004755;}.a136209a-6164-450f-a81b-002267e45fe1{fill:#004c56;}.e55304a2-b64f-4856-ab97-69e8badac709{fill:#006969;}.b4117652-91e6-420a-85ae-4ab770b5faec{fill:#003b4e;}.b8bc3d2b-298a-475c-b9bc-05973ba1c00c{fill:#007a7d;}.a84af963-be6b-41bb-9e1c-4afeff873c46,.ad484280-5b1f-45d6-b62b-e32a0403a830{stroke:#fff;stroke-miterlimit:10;}.ad484280-5b1f-45d6-b62b-e32a0403a830{stroke-width:10px;fill:url(#b1656ba3-4ec7-432f-83af-328e7556fd15);}.a84af963-be6b-41bb-9e1c-4afeff873c46{stroke-width:4px;}.b88ef069-7c1b-4421-9bc9-bcff9ea85012{clip-path:url(#a395762f-d144-4ae0-869c-b5ba6fa598b4);}.b6f781f0-638e-449b-a209-3b3ec0eddd19{clip-path:url(#a4308bb0-a9de-40cc-b2e2-83733a47c316);}.b224140a-0205-43da-8fd1-33e6769ad8c2{fill:#fff;}</style><radialGradient id="b8871872-1f05-43fc-8270-0b892bb77479" cx="1182.89639" cy="918.85946" r="0" gradientUnits="userSpaceOnUse"><stop offset="0.21744" stop-color="#00a499"/><stop offset="1" stop-color="#113048"/></radialGradient><radialGradient id="bfcc1b71-9d43-4559-af1b-a698552f303a" cx="1233.17868" cy="880.72812" xlink:href="#b8871872-1f05-43fc-8270-0b892bb77479"/><radialGradient id="b46f0bd6-d576-4970-90e7-283abaecba50" cx="1273.89099" cy="981.57886" xlink:href="#b8871872-1f05-43fc-8270-0b892bb77479"/><radialGradient id="b23e9f24-fa32-46d1-b2b2-b4a481d7567f" cx="922.44601" cy="820.35797" xlink:href="#b8871872-1f05-43fc-8270-0b892bb77479"/><radialGradient id="a35ade26-187d-41fe-a4a2-d941cf94562b" cx="902.7333" cy="729.9441" xlink:href="#b8871872-1f05-43fc-8270-0b892bb77479"/><radialGradient id="a78b83d7-ffc9-4963-8584-ab4199aec5e7" cx="1082.53729" cy="740.6525" xlink:href="#b8871872-1f05-43fc-8270-0b892bb77479"/><radialGradient id="b0a3a3f8-e0ae-4330-a5af-6d797b292736" cx="863.35877" cy="721.04743" xlink:href="#b8871872-1f05-43fc-8270-0b892bb77479"/><radialGradient id="b4d6f616-b024-4dea-af8f-3f3322bf5b52" cx="810.63646" cy="763.19802" xlink:href="#b8871872-1f05-43fc-8270-0b892bb77479"/><radialGradient id="ed0ded00-f4c5-44bd-9000-b007b5c6f570" cx="794.18609" cy="682.86933" r="0" gradientUnits="userSpaceOnUse"><stop offset="0.21744" stop-color="#00a499"/><stop offset="1" stop-color="#002948"/></radialGradient><radialGradient id="aa50d6b4-d358-4f94-8995-943bfd5d4c6e" cx="1023.65294" cy="878.9843" xlink:href="#b8871872-1f05-43fc-8270-0b892bb77479"/><radialGradient id="f904ca0c-8f51-406f-84df-c9ce8d069a5b" cx="940.68802" cy="845.33726" xlink:href="#b8871872-1f05-43fc-8270-0b892bb77479"/><radialGradient id="e548c4b6-52e6-4877-a14b-3a13d5e46d65" cx="871.45186" cy="848.94443" xlink:href="#b8871872-1f05-43fc-8270-0b892bb77479"/><radialGradient id="b841788b-50ae-4ae4-9156-0bc551610657" cx="866.10795" cy="890.97861" xlink:href="#b8871872-1f05-43fc-8270-0b892bb77479"/><radialGradient id="aca7d513-5edf-4045-9ed0-70434ff8174d" cx="780.56123" cy="783.69824" xlink:href="#ed0ded00-f4c5-44bd-9000-b007b5c6f570"/><radialGradient id="b109517c-81f8-4099-9bd5-4fa455d539b8" cx="650.51116" cy="897.50317" xlink:href="#ed0ded00-f4c5-44bd-9000-b007b5c6f570"/><radialGradient id="feab53ea-5b7f-4167-9b0e-b47b2773472b" cx="806.7172" cy="1033.44452" xlink:href="#b8871872-1f05-43fc-8270-0b892bb77479"/><radialGradient id="ab28cab5-d753-45d4-ad7e-235c530530f9" cx="1042.46861" cy="560.49414" r="937.90842" xlink:href="#b8871872-1f05-43fc-8270-0b892bb77479"/><radialGradient id="ade516b6-84aa-45fd-8bce-d8aeb67518ff" cx="862.69657" cy="720.95794" xlink:href="#b8871872-1f05-43fc-8270-0b892bb77479"/><radialGradient id="accf5b98-2306-49e3-a4de-28b56f97f792" cx="806.73374" cy="500.46055" xlink:href="#b8871872-1f05-43fc-8270-0b892bb77479"/><radialGradient id="a745ac5e-1ac8-4102-945b-73501d4f7e6a" cx="1337.24402" cy="518.17797" xlink:href="#b8871872-1f05-43fc-8270-0b892bb77479"/><radialGradient id="f6616a2c-82d9-49bf-bafe-2bf97389dbcf" cx="1450.65687" cy="569.06588" xlink:href="#b8871872-1f05-43fc-8270-0b892bb77479"/><radialGradient id="b971a3c8-b074-4e69-8e3d-d9ad3a6bd2a7" cx="1616.30452" cy="687.40478" xlink:href="#b8871872-1f05-43fc-8270-0b892bb77479"/><radialGradient id="e040139f-81ed-488f-862e-afb300366225" cx="1833.95547" cy="863.60617" xlink:href="#b8871872-1f05-43fc-8270-0b892bb77479"/><radialGradient id="ac407559-06ad-4388-a95b-183624d2c4fe" cx="841.03864" cy="1073.66232" xlink:href="#b8871872-1f05-43fc-8270-0b892bb77479"/><radialGradient id="b1b10844-8717-44ec-a0c5-a9e81a236660" cx="993.17497" cy="1060.67995" xlink:href="#b8871872-1f05-43fc-8270-0b892bb77479"/><radialGradient id="fea32f6a-b3d2-44f4-b7ad-2d5d53717cbe" cx="947.17008" cy="1107.51225" xlink:href="#b8871872-1f05-43fc-8270-0b892bb77479"/><radialGradient id="fd59858f-efc3-4348-8499-b0bbc4cb84b4" cx="855.8566" cy="1083.04733" xlink:href="#b8871872-1f05-43fc-8270-0b892bb77479"/><radialGradient id="f6aeb641-94c8-4f62-a8c2-b97e969e26a9" cx="875.06062" cy="1094.59134" xlink:href="#b8871872-1f05-43fc-8270-0b892bb77479"/><radialGradient id="b325feb2-3c24-4153-8365-de7c94fbd27f" cx="749.98079" cy="1008.32547" xlink:href="#b8871872-1f05-43fc-8270-0b892bb77479"/><radialGradient id="a0ecc05c-f35c-47cb-9b01-3a2d4cbc89e2" cx="662.55076" cy="790.47896" r="0" gradientUnits="userSpaceOnUse"><stop offset="0.21744" stop-color="#00a499"/><stop offset="1" stop-color="#002b48"/></radialGradient><radialGradient id="baf2085e-1186-41b9-bdc8-9f756d267e42" cx="956.50265" cy="462.64655" xlink:href="#b8871872-1f05-43fc-8270-0b892bb77479"/><radialGradient id="ef8f63c7-fee9-4007-8084-62492b8e55fd" cx="598.42606" cy="676.39545" xlink:href="#a0ecc05c-f35c-47cb-9b01-3a2d4cbc89e2"/><radialGradient id="efe2c71b-517d-43ba-85b0-eec352ed5658" cx="445.3592" cy="236.28855" r="937.90842" xlink:href="#b8871872-1f05-43fc-8270-0b892bb77479"/><radialGradient id="ad25e803-0eaf-4824-87c0-63f5ba8b0870" cx="444.80851" cy="235.67578" r="937.90842" xlink:href="#a0ecc05c-f35c-47cb-9b01-3a2d4cbc89e2"/><radialGradient id="f4c51d08-5ad1-45df-9a76-1e676812d9be" cx="622.17074" cy="677.43031" xlink:href="#a0ecc05c-f35c-47cb-9b01-3a2d4cbc89e2"/><radialGradient id="b57a1e49-1caf-4087-8d79-faf6f4da13b0" cx="0" cy="235.67578" r="395.68791" xlink:href="#a0ecc05c-f35c-47cb-9b01-3a2d4cbc89e2"/><radialGradient id="bc98a3be-19ce-4095-9415-0cb55037a897" cx="633.4963" cy="610.69678" xlink:href="#a0ecc05c-f35c-47cb-9b01-3a2d4cbc89e2"/><radialGradient id="ffa653a9-f745-4962-b01f-6b3165458771" cx="702.85159" cy="526.45158" xlink:href="#ed0ded00-f4c5-44bd-9000-b007b5c6f570"/><radialGradient id="ebfb0e80-b2c9-407c-a291-71cdd808c7b1" cx="622.96211" cy="621.43031" xlink:href="#a0ecc05c-f35c-47cb-9b01-3a2d4cbc89e2"/><radialGradient id="b496d33c-365d-4754-b055-cf98ccd14093" cx="841.92956" cy="471.02376" xlink:href="#b8871872-1f05-43fc-8270-0b892bb77479"/><radialGradient id="b139da55-14ef-470e-b658-b66eeb238548" cx="609.91542" cy="647.92975" xlink:href="#a0ecc05c-f35c-47cb-9b01-3a2d4cbc89e2"/><radialGradient id="e3a0d05d-3cb4-42e7-a71a-63da4cc53310" cx="629.91266" cy="619.93863" xlink:href="#a0ecc05c-f35c-47cb-9b01-3a2d4cbc89e2"/><radialGradient id="e327bdcd-aacd-4fb0-b745-97b230101cba" cx="444.54387" cy="236.28855" r="938.80769" xlink:href="#b8871872-1f05-43fc-8270-0b892bb77479"/><radialGradient id="a2e6dbf0-03d4-48a2-ad1a-c86a958e3d2a" cx="1079.70265" cy="755.13244" xlink:href="#b8871872-1f05-43fc-8270-0b892bb77479"/><radialGradient id="e7cbcb35-5bf7-4779-99fd-b5e22369bc1d" cx="1203.61755" cy="787.21754" xlink:href="#b8871872-1f05-43fc-8270-0b892bb77479"/><radialGradient id="ec0aa14f-9673-4a7e-9ece-6a7f94939faf" cx="1197.6601" cy="717.55797" xlink:href="#b8871872-1f05-43fc-8270-0b892bb77479"/><radialGradient id="bad2fd18-a944-400c-87cb-7f9f92497ef3" cx="784.34043" cy="235.67578" r="586.84557" xlink:href="#b8871872-1f05-43fc-8270-0b892bb77479"/><radialGradient id="bd32c35c-992b-405a-8653-8480f16caab0" cx="1323.44243" cy="743.19649" xlink:href="#b8871872-1f05-43fc-8270-0b892bb77479"/><radialGradient id="b2b30a31-5203-4abb-a211-538445c0f6a7" cx="445.3592" cy="236.28855" r="937.90842" xlink:href="#a0ecc05c-f35c-47cb-9b01-3a2d4cbc89e2"/><radialGradient id="e5ebfefc-73d0-4032-9417-f2439df33090" cx="1272.25365" cy="822.5438" r="550.45981" xlink:href="#a0ecc05c-f35c-47cb-9b01-3a2d4cbc89e2"/><radialGradient id="b1656ba3-4ec7-432f-83af-328e7556fd15" cx="945.62223" cy="1047.07503" r="865.96237" gradientTransform="matrix(1.01875, 0.00425, -0.00512, 1.22756, -12.07036, -254.64726)" xlink:href="#a0ecc05c-f35c-47cb-9b01-3a2d4cbc89e2"/><clipPath id="a395762f-d144-4ae0-869c-b5ba6fa598b4" transform="translate(-597.6601 -324.81836)"/><clipPath id="a4308bb0-a9de-40cc-b2e2-83733a47c316" transform="translate(-597.6601 -324.81836)"><path class="fe68ee09-4cd6-4810-a431-70252eb2c437" d="M1022.90739,1042.60389a11.06163,11.06163,0,0,1,4.58564-1.80641c12.1132-1.78441,66.03237-8.88991,100.54928.37859,34.46948,9.25576,130.90835,33.39383,152.89619,40.06808,2.93882.89207,5.08323,1.46852,5.08323,1.46852l94.71034,21.21887,220.482,55.16c7.47778,1.87078,12.33242,10.44018,10.94557,19.32111l-3.5278,22.59109c-1.09034,6.98223-5.80631,12.38079-11.74748,13.44783l-164.94291,29.62389a10.62749,10.62749,0,0,1-1.07232.22771l-121.65365,19.32162s-101.24383,14.69-113.67728,12.59144-62.16727,13.00182-129.66316.20519c-65.44083-12.407-54.07578-202.16652-53.323-213.71033.02446-.37519.03681-.74813.03681-1.12444"/></clipPath></defs><title>itworks</title><g id="b558a6ac-7ed7-432f-aa1f-3274716f1b40" data-name="bottom full riing"><path class="eca54ada-f3e7-4ed0-a514-bf806b465f8e" d="M1305.80851,324.81836c-310.09686,0-561.48,251.38318-561.48,561.48s251.38318,561.48,561.48,561.48,561.48-251.38312,561.48-561.48S1615.90537,324.81836,1305.80851,324.81836Zm5.24628,1007.86914A451.464,451.464,0,0,1,859.58994,881.22265c0-249.33716,202.12769-451.46484,451.46485-451.46484s451.46484,202.12768,451.46484,451.46484S1560.392,1332.6875,1311.05479,1332.6875Z" transform="translate(-597.6601 -324.81836)"/></g><g id="a60c0e59-1e7c-40e1-bc68-7b8a95a330d4" data-name="Layer 2"><path class="ef9fa18f-b615-46ce-92fb-28335989370b" d="M1182.89639,918.85946" transform="translate(-597.6601 -324.81836)"/><path class="e68d14cd-3264-4f06-9d98-fb6e111a043e" d="M1233.17868,880.72812" transform="translate(-597.6601 -324.81836)"/><path class="ef9fa18f-b615-46ce-92fb-28335989370b" d="M1182.89639,918.85946" transform="translate(-597.6601 -324.81836)"/><path class="ef9fa18f-b615-46ce-92fb-28335989370b" d="M1182.89639,918.85946" transform="translate(-597.6601 -324.81836)"/><path class="e28a8312-45f5-405f-b25d-22e369130717" d="M1273.891,981.57886" transform="translate(-597.6601 -324.81836)"/><path class="ef9fa18f-b615-46ce-92fb-28335989370b" d="M1182.89639,918.85946" transform="translate(-597.6601 -324.81836)"/><path class="f24ac332-489c-41cf-a18a-5cef50c1c12a" d="M922.446,820.358" transform="translate(-597.6601 -324.81836)"/><path class="a39df6b6-5d39-49cf-b520-5c00f9a7457b" d="M902.7333,729.9441" transform="translate(-597.6601 -324.81836)"/><path class="a39df6b6-5d39-49cf-b520-5c00f9a7457b" d="M902.7333,729.9441" transform="translate(-597.6601 -324.81836)"/><path class="f24ac332-489c-41cf-a18a-5cef50c1c12a" d="M922.446,820.358" transform="translate(-597.6601 -324.81836)"/><path class="ba30a0a2-18ba-479b-bfc9-b4641d3d3962" d="M1082.53729,740.6525" transform="translate(-597.6601 -324.81836)"/><path class="ba30a0a2-18ba-479b-bfc9-b4641d3d3962" d="M1082.53729,740.6525" transform="translate(-597.6601 -324.81836)"/><path class="a39df6b6-5d39-49cf-b520-5c00f9a7457b" d="M902.7333,729.9441" transform="translate(-597.6601 -324.81836)"/><path class="a39df6b6-5d39-49cf-b520-5c00f9a7457b" d="M902.7333,729.9441" transform="translate(-597.6601 -324.81836)"/><path class="a4da3083-8faa-4be5-aebe-568d36874eff" d="M863.35877,721.04743" transform="translate(-597.6601 -324.81836)"/><path class="b56403eb-1b4b-4182-8986-bd529bf40a4d" d="M810.63646,763.198" transform="translate(-597.6601 -324.81836)"/><path class="b56403eb-1b4b-4182-8986-bd529bf40a4d" d="M810.63646,763.198" transform="translate(-597.6601 -324.81836)"/><path class="a4da3083-8faa-4be5-aebe-568d36874eff" d="M863.35877,721.04743" transform="translate(-597.6601 -324.81836)"/><path class="b56403eb-1b4b-4182-8986-bd529bf40a4d" d="M810.63646,763.198" transform="translate(-597.6601 -324.81836)"/><path class="a20e3824-3006-4998-9da1-c0436675a72d" d="M794.18609,682.86933" transform="translate(-597.6601 -324.81836)"/><path class="aec961f5-8798-4808-aaee-c866b5c62ab0" d="M1023.65294,878.9843" transform="translate(-597.6601 -324.81836)"/><path class="aec961f5-8798-4808-aaee-c866b5c62ab0" d="M1023.65294,878.9843" transform="translate(-597.6601 -324.81836)"/><path class="bc9c88ad-18c5-482b-b530-8d6e294ae927" d="M940.688,845.33726" transform="translate(-597.6601 -324.81836)"/><path class="a656539b-a4cf-4823-bc6d-bc40a82f043a" d="M871.45186,848.94443" transform="translate(-597.6601 -324.81836)"/><path class="f8634f70-3d16-48d9-af4a-c9f940f813f9" d="M866.108,890.97861" transform="translate(-597.6601 -324.81836)"/><path class="bc9c88ad-18c5-482b-b530-8d6e294ae927" d="M940.688,845.33726" transform="translate(-597.6601 -324.81836)"/><path class="f8634f70-3d16-48d9-af4a-c9f940f813f9" d="M866.108,890.97861" transform="translate(-597.6601 -324.81836)"/><path class="f8634f70-3d16-48d9-af4a-c9f940f813f9" d="M866.108,890.97861" transform="translate(-597.6601 -324.81836)"/><path class="f8634f70-3d16-48d9-af4a-c9f940f813f9" d="M866.108,890.97861" transform="translate(-597.6601 -324.81836)"/><path class="f8634f70-3d16-48d9-af4a-c9f940f813f9" d="M866.108,890.97861" transform="translate(-597.6601 -324.81836)"/><path class="a656539b-a4cf-4823-bc6d-bc40a82f043a" d="M871.45186,848.94443" transform="translate(-597.6601 -324.81836)"/><path class="a656539b-a4cf-4823-bc6d-bc40a82f043a" d="M871.45186,848.94443" transform="translate(-597.6601 -324.81836)"/><path class="a656539b-a4cf-4823-bc6d-bc40a82f043a" d="M871.45186,848.94443" transform="translate(-597.6601 -324.81836)"/><path class="a13fc718-ba1b-4b87-8c3b-0842c0a7b32f" d="M780.56123,783.69824" transform="translate(-597.6601 -324.81836)"/><path class="ee5cd48c-c2dc-46c6-9f7a-8425e6efef22" d="M650.51116,897.50317" transform="translate(-597.6601 -324.81836)"/><path class="a13fc718-ba1b-4b87-8c3b-0842c0a7b32f" d="M780.56123,783.69824" transform="translate(-597.6601 -324.81836)"/><path class="ee5cd48c-c2dc-46c6-9f7a-8425e6efef22" d="M650.51116,897.50317" transform="translate(-597.6601 -324.81836)"/><path class="eacc6e66-99d2-45c7-94ba-d6b213450f12" d="M806.7172,1033.44452" transform="translate(-597.6601 -324.81836)"/><path class="e9c41990-3fdb-430d-b852-1f929490a826" d="M841.03864,1073.66232l-34.32144-40.2178Z" transform="translate(-597.6601 -324.81836)"/><path class="e9c41990-3fdb-430d-b852-1f929490a826" d="M747.78776,1013.04428l58.92944,20.40024Z" transform="translate(-597.6601 -324.81836)"/><path class="fa80b5af-f46e-4867-b489-dc7b34a07c50" d="M862.69657,720.95794" transform="translate(-597.6601 -324.81836)"/><path class="a39df6b6-5d39-49cf-b520-5c00f9a7457b" d="M902.7333,729.9441" transform="translate(-597.6601 -324.81836)"/><path class="a39df6b6-5d39-49cf-b520-5c00f9a7457b" d="M902.7333,729.9441" transform="translate(-597.6601 -324.81836)"/><path class="fa80b5af-f46e-4867-b489-dc7b34a07c50" d="M862.69657,720.95794" transform="translate(-597.6601 -324.81836)"/><path class="adc8407c-6b2a-4c42-bba4-0d183c2b3dfc" d="M806.73374,500.46055" transform="translate(-597.6601 -324.81836)"/><path class="b9a12b57-889e-4e09-a985-09df7c47f43f" d="M1337.244,518.178" transform="translate(-597.6601 -324.81836)"/><path class="b9a12b57-889e-4e09-a985-09df7c47f43f" d="M1337.244,518.178" transform="translate(-597.6601 -324.81836)"/><path class="faa21332-8b7e-4ca8-9008-474fe272bb1b" d="M1450.65687,569.06588" transform="translate(-597.6601 -324.81836)"/><path class="b9a12b57-889e-4e09-a985-09df7c47f43f" d="M1337.244,518.178" transform="translate(-597.6601 -324.81836)"/><path class="b8a8066f-568a-47e6-8546-7e0232719953" d="M1616.30452,687.40478" transform="translate(-597.6601 -324.81836)"/><path class="faa21332-8b7e-4ca8-9008-474fe272bb1b" d="M1450.65687,569.06588" transform="translate(-597.6601 -324.81836)"/><path class="a10da1b0-80ae-4dbe-badf-c9ef2c835d21" d="M1833.95547,863.60617" transform="translate(-597.6601 -324.81836)"/><path class="e9c41990-3fdb-430d-b852-1f929490a826" d="M1070.9656,1167.82332l-36.64489-12.04394Z" transform="translate(-597.6601 -324.81836)"/><path class="e9c41990-3fdb-430d-b852-1f929490a826" d="M993.175,1144.32392l41.14574,11.45546Z" transform="translate(-597.6601 -324.81836)"/><path class="e804bdca-3d1c-4ca4-a91b-e4ed15db6398" d="M841.03864,1073.66232" transform="translate(-597.6601 -324.81836)"/><path class="e671ea00-02ea-4eee-bc73-acb8206be196" d="M993.175,1060.68" transform="translate(-597.6601 -324.81836)"/><path class="b7431322-b115-4859-8cc3-590a5b74db77" d="M947.17008,1107.51225" transform="translate(-597.6601 -324.81836)"/><path class="ecad8ac2-ae75-4bbe-80ef-bab5b276bcdb" d="M855.8566,1083.04733" transform="translate(-597.6601 -324.81836)"/><path class="ad3a5bd0-36c7-4f32-9d85-db0f359e4e6a" d="M875.06062,1094.59134" transform="translate(-597.6601 -324.81836)"/><path class="e2b7c785-40b8-45ad-a55f-8f194b0800c6" d="M749.98079,1008.32547" transform="translate(-597.6601 -324.81836)"/><path class="fce67d2b-417a-43e8-8871-f393d0b451cb" d="M662.55076,790.479" transform="translate(-597.6601 -324.81836)"/><path class="af7d40c5-8016-4dd0-98e2-f000ac158e63" d="M956.50265,462.64655" transform="translate(-597.6601 -324.81836)"/><path class="af7d40c5-8016-4dd0-98e2-f000ac158e63" d="M956.50265,462.64655" transform="translate(-597.6601 -324.81836)"/><path class="b340afd3-532c-4e24-995f-3970abfb0374" d="M598.42606,676.39545" transform="translate(-597.6601 -324.81836)"/><polygon class="ba6c2596-8b04-48b4-bcad-ac4ce7169835" points="996.955 741.629 734.849 668.969 761.402 592.374 1030.657 668.969 996.955 741.629"/><polygon class="a70dd437-22c6-4c20-9f3e-3641bd0ec880" points="24.511 352.612 0 442.655 13.277 508.016 24.511 352.612"/><polygon class="a70dd437-22c6-4c20-9f3e-3641bd0ec880" points="37.327 546.467 13.277 508.016 24.511 352.612 37.327 546.467"/><path class="fca5e5bb-3375-4260-b14a-3f86fca79d76" d="M622.17074,677.43031" transform="translate(-597.6601 -324.81836)"/><line class="b5c32af5-c6ac-4287-a082-d3cd68e28995" y1="442.6545" y2="382.90982"/><line class="a70dd437-22c6-4c20-9f3e-3641bd0ec880" y1="382.90982" x2="24.51064" y2="352.61195"/><path class="fca5e5bb-3375-4260-b14a-3f86fca79d76" d="M622.17074,677.43031" transform="translate(-597.6601 -324.81836)"/><path class="f87fc7ad-3a68-444c-a922-4d99ea5df23b" d="M633.4963,610.69678" transform="translate(-597.6601 -324.81836)"/><path class="f1a387ef-f499-456e-b9e9-9498e563df06" d="M702.85159,526.45158" transform="translate(-597.6601 -324.81836)"/><path class="b522c7de-d475-4479-b500-f6302a9ecbbe" d="M622.96211,621.43031" transform="translate(-597.6601 -324.81836)"/><path class="fca5e5bb-3375-4260-b14a-3f86fca79d76" d="M622.17074,677.43031" transform="translate(-597.6601 -324.81836)"/><path class="b212a7d7-f3d0-4f1a-8760-4dfabf417eab" d="M841.92956,471.02376" transform="translate(-597.6601 -324.81836)"/><path class="fca5e5bb-3375-4260-b14a-3f86fca79d76" d="M622.17074,677.43031" transform="translate(-597.6601 -324.81836)"/><path class="fca5e5bb-3375-4260-b14a-3f86fca79d76" d="M622.17074,677.43031" transform="translate(-597.6601 -324.81836)"/><path class="fca5e5bb-3375-4260-b14a-3f86fca79d76" d="M622.17074,677.43031" transform="translate(-597.6601 -324.81836)"/><path class="fca5e5bb-3375-4260-b14a-3f86fca79d76" d="M622.17074,677.43031" transform="translate(-597.6601 -324.81836)"/><path class="fca5e5bb-3375-4260-b14a-3f86fca79d76" d="M622.17074,677.43031" transform="translate(-597.6601 -324.81836)"/><path class="fca5e5bb-3375-4260-b14a-3f86fca79d76" d="M622.17074,677.43031" transform="translate(-597.6601 -324.81836)"/><polygon class="a70dd437-22c6-4c20-9f3e-3641bd0ec880" points="24.511 352.612 436.596 556.016 401.872 605.548 24.511 352.612"/><polygon class="a70dd437-22c6-4c20-9f3e-3641bd0ec880" points="79.196 612.204 24.511 352.612 37.327 546.467 79.196 612.204"/><polygon class="a70dd437-22c6-4c20-9f3e-3641bd0ec880" points="140.503 681.656 24.511 352.612 79.196 612.204 140.503 681.656"/><polygon class="a70dd437-22c6-4c20-9f3e-3641bd0ec880" points="219.064 701.548 24.511 352.612 140.503 681.656 219.064 701.548"/><polygon class="a70dd437-22c6-4c20-9f3e-3641bd0ec880" points="303.319 673.463 219.064 701.548 24.511 352.612 303.319 673.463"/><polygon class="a70dd437-22c6-4c20-9f3e-3641bd0ec880" points="352.851 648.442 303.319 673.463 24.511 352.612 352.851 648.442"/><polygon class="a70dd437-22c6-4c20-9f3e-3641bd0ec880" points="401.872 605.548 352.851 648.442 24.511 352.612 401.872 605.548"/><polygon class="a70dd437-22c6-4c20-9f3e-3641bd0ec880" points="464.681 497.112 24.511 352.612 436.596 556.016 464.681 497.112"/><polygon class="a70dd437-22c6-4c20-9f3e-3641bd0ec880" points="482.043 430.314 24.511 352.612 464.681 497.112 482.043 430.314"/><polygon class="a70dd437-22c6-4c20-9f3e-3641bd0ec880" points="486.638 369.633 24.511 352.612 482.043 430.314 486.638 369.633"/><polygon class="a70dd437-22c6-4c20-9f3e-3641bd0ec880" points="479.489 308.867 486.638 369.633 24.511 352.612 479.489 308.867"/><polygon class="a70dd437-22c6-4c20-9f3e-3641bd0ec880" points="462.638 249.409 24.511 352.612 479.489 308.867 462.638 249.409"/><polygon class="a70dd437-22c6-4c20-9f3e-3641bd0ec880" points="427.915 205.718 24.511 352.612 462.638 249.409 427.915 205.718"/><polygon class="a70dd437-22c6-4c20-9f3e-3641bd0ec880" points="386.553 168.952 24.511 352.612 427.915 205.718 386.553 168.952"/><polyline class="a70dd437-22c6-4c20-9f3e-3641bd0ec880" points="303.319 131.542 24.511 352.612 230.809 149.548"/><polygon class="a70dd437-22c6-4c20-9f3e-3641bd0ec880" points="24.511 352.612 0 357.889 0 382.91 24.511 352.612"/><polygon class="a70dd437-22c6-4c20-9f3e-3641bd0ec880" points="3.198 343.176 24.511 352.612 0 357.889 3.198 343.176"/><path class="eb097cfd-a3de-41d7-ace7-ebf1d4c89f1d" d="M609.91542,647.92975" transform="translate(-597.6601 -324.81836)"/><line class="a70dd437-22c6-4c20-9f3e-3641bd0ec880" x1="24.51064" y1="352.61195" x2="3.1984" y2="343.1759"/><path class="f811d8fb-33ac-42dc-a3bf-72374684805e" d="M629.91266,619.93863" transform="translate(-597.6601 -324.81836)"/><polyline class="a70dd437-22c6-4c20-9f3e-3641bd0ec880" points="70.468 238.399 41.096 279.165 24.511 352.612"/><polygon class="a70dd437-22c6-4c20-9f3e-3641bd0ec880" points="155.696 178.21 24.511 352.612 84.601 223.435 155.696 178.21"/><polygon class="e9c41990-3fdb-430d-b852-1f929490a826" points="784.34 508.016 482.043 430.314 464.681 497.112 760.851 591.761 784.34 508.016"/><polygon class="e9c41990-3fdb-430d-b852-1f929490a826" points="784.34 430.314 784.34 508.016 482.043 430.314 486.638 369.633 784.34 430.314"/><polygon class="e9c41990-3fdb-430d-b852-1f929490a826" points="771.064 350.532 784.34 430.314 486.638 369.633 479.489 308.867 771.064 350.532"/><polygon class="e9c41990-3fdb-430d-b852-1f929490a826" points="740.426 285.878 771.064 350.532 479.489 308.867 462.638 249.409 740.426 285.878"/><polygon class="e9c41990-3fdb-430d-b852-1f929490a826" points="427.915 205.718 695.489 214.91 740.426 285.878 462.638 249.409 427.915 205.718"/><polygon class="e9c41990-3fdb-430d-b852-1f929490a826" points="436.596 556.016 734.298 668.357 760.851 591.761 464.681 497.112 436.596 556.016"/><polygon class="e9c41990-3fdb-430d-b852-1f929490a826" points="401.872 605.548 674.043 727.591 734.298 668.357 436.596 556.016 401.872 605.548"/><polyline class="e9c41990-3fdb-430d-b852-1f929490a826" points="401.872 605.548 401.872 605.548 352.851 648.442"/><polygon class="e9c41990-3fdb-430d-b852-1f929490a826" points="386.553 788.867 219.064 701.548 303.319 673.463 427.915 760.272 593.362 814.399 550.468 842.995 386.553 788.867"/><polyline class="e9c41990-3fdb-430d-b852-1f929490a826" points="525.957 854.229 550.468 842.995 523.915 856.647"/><polygon class="e9c41990-3fdb-430d-b852-1f929490a826" points="624.511 160.782 479.489 155.676 386.553 168.952 427.915 205.718 695.489 214.91 624.511 160.782"/><polygon class="e9c41990-3fdb-430d-b852-1f929490a826" points="485.806 108.336 347.234 143.931 386.553 168.952 479.489 155.676 624.511 160.782 485.806 108.336"/><polyline class="ba6c2596-8b04-48b4-bcad-ac4ce7169835" points="996.955 741.629 955.083 801.884 674.593 728.203 617.402 782.331 465.232 714.927 353.402 649.055 303.87 674.076 428.466 760.884 593.912 815.012 617.402 782.331"/><polygon class="ba6c2596-8b04-48b4-bcad-ac4ce7169835" points="940.785 843.608 761.402 824.352 617.402 782.331 674.593 728.203 955.083 801.884 940.785 843.608"/><polygon class="ba6c2596-8b04-48b4-bcad-ac4ce7169835" points="925.466 867.246 726.38 861.991 593.912 815.012 617.402 782.331 761.402 824.352 940.785 843.608 925.466 867.246"/><polygon class="ba6c2596-8b04-48b4-bcad-ac4ce7169835" points="784.891 430.927 1058.232 522.055 1058.232 598.65 784.891 508.629 784.891 430.927"/><polygon class="ba6c2596-8b04-48b4-bcad-ac4ce7169835" points="771.615 351.145 1042.912 450.152 1058.232 522.055 784.891 430.927 771.615 351.145"/><polygon class="ba6c2596-8b04-48b4-bcad-ac4ce7169835" points="740.976 286.491 885.52 334.913 1011.253 377.033 1042.912 450.152 771.615 351.145 740.976 286.491"/><polygon class="ba6c2596-8b04-48b4-bcad-ac4ce7169835" points="696.04 215.523 858.061 248.884 1001.04 348.507 1011.253 377.033 740.976 286.491 696.04 215.523"/><polygon class="e9c41990-3fdb-430d-b852-1f929490a826" points="624.511 160.782 728.17 185.293 853.096 241.633 857.511 248.272 695.489 214.91 624.511 160.782"/><polygon class="ba6c2596-8b04-48b4-bcad-ac4ce7169835" points="1244.466 674.076 1058.232 598.65 1030.657 668.969 1244.466 728.203 1244.466 674.076"/><polyline class="ba6c2596-8b04-48b4-bcad-ac4ce7169835" points="1030.657 668.969 996.955 741.629 1154.961 762.133 1170.287 764.122 1224.04 771.097 1244.466 728.203 1030.657 668.969 996.955 741.629 1018.387 695.422"/><polygon class="ba6c2596-8b04-48b4-bcad-ac4ce7169835" points="955.083 801.884 1090.253 809.906 1195.444 815.012 1224.04 771.097 996.955 741.629 955.083 801.884"/><polygon class="ba6c2596-8b04-48b4-bcad-ac4ce7169835" points="940.785 843.608 1067.785 861.991 1176.466 855.948 1195.444 815.012 955.083 801.884 940.785 843.608"/><polygon class="e703fa84-3d1f-4b82-98b0-c98d3095104c" points="925.466 867.246 1035.125 878.225 1074.934 877.31 1176.466 855.948 1067.785 861.991 940.785 843.608 925.466 867.246"/><polygon class="ba6c2596-8b04-48b4-bcad-ac4ce7169835" points="551.019 843.608 690.762 880.892 767.349 886.501 1030.657 878.225 925.466 867.246 726.38 861.991 593.912 815.012 551.019 843.608"/><polygon class="e9c41990-3fdb-430d-b852-1f929490a826" points="924.915 866.633 914.372 881.25 766.798 885.889 690.211 880.279 550.468 842.995 593.362 814.399 725.829 861.378 924.915 866.633"/><polygon class="ba6c2596-8b04-48b4-bcad-ac4ce7169835" points="1244.466 619.948 1058.232 522.055 1058.232 598.65 1244.466 674.076 1244.466 619.948"/><polygon class="ba6c2596-8b04-48b4-bcad-ac4ce7169835" points="1231.274 568.749 1244.466 619.948 1058.232 522.055 1042.912 450.152 1231.274 568.749"/><polygon class="ba6c2596-8b04-48b4-bcad-ac4ce7169835" points="1191.359 495.352 1011.253 377.033 1042.912 450.152 1231.274 568.749 1191.359 495.352"/><polygon class="ba6c2596-8b04-48b4-bcad-ac4ce7169835" points="1341.487 720.033 1244.466 674.076 1244.466 728.203 1337.912 750.672 1341.487 720.033"/><polygon class="ba6c2596-8b04-48b4-bcad-ac4ce7169835" points="1244.466 619.948 1244.466 674.076 1341.487 720.033 1332.295 674.076 1244.466 619.948"/><polygon class="ba6c2596-8b04-48b4-bcad-ac4ce7169835" points="1231.274 568.749 1318.171 627.608 1332.295 674.076 1244.466 619.948 1231.274 568.749"/><polygon class="ba6c2596-8b04-48b4-bcad-ac4ce7169835" points="1224.04 771.097 1324.125 784.374 1337.912 750.672 1244.466 728.203 1224.04 771.097"/><polygon class="ba6c2596-8b04-48b4-bcad-ac4ce7169835" points="1195.444 815.012 1281.785 820.448 1324.125 784.374 1224.04 771.097 1195.444 815.012"/><polygon class="e9c41990-3fdb-430d-b852-1f929490a826" points="1340.936 719.42 1348.085 725.548 1341.957 755.165 1337.362 750.059 1340.936 719.42"/><polygon class="ba6c2596-8b04-48b4-bcad-ac4ce7169835" points="1332.295 674.076 1348.636 698.586 1348.636 726.161 1341.487 718.672 1332.295 674.076"/><path class="ed7c1ec3-843d-40fc-964f-2a4c9594a9f5" d="M1079.70265,755.13244" transform="translate(-597.6601 -324.81836)"/><polyline class="e9c41990-3fdb-430d-b852-1f929490a826" points="492.766 369.633 489.702 369.591 486.638 369.633 482.043 430.314 535.606 444.082"/><path class="e6b545c8-a989-4be7-8436-c0062719c627" d="M1203.61755,787.21754" transform="translate(-597.6601 -324.81836)"/><path class="f802685d-71b6-4c7d-a1a4-1b825f17e55a" d="M1197.6601,717.558" transform="translate(-597.6601 -324.81836)"/><line class="e9c41990-3fdb-430d-b852-1f929490a826" x1="605.95745" y1="462.39919" x2="535.60618" y2="444.08198"/><path class="f802685d-71b6-4c7d-a1a4-1b825f17e55a" d="M1197.6601,717.558" transform="translate(-597.6601 -324.81836)"/><path class="e6b545c8-a989-4be7-8436-c0062719c627" d="M1203.61755,787.21754" transform="translate(-597.6601 -324.81836)"/><line class="ab2107f8-4a9d-4fad-bdd8-9120e6147a3f" x1="784.34043" y1="508.01621" x2="784.34043" y2="430.31408"/><path class="fb73b093-f8b5-4356-bd0b-30f33d825780" d="M1323.44243,743.19649" transform="translate(-597.6601 -324.81836)"/><polyline class="f80a87e7-b631-4dc5-9ff1-b42c874e7e1d" points="0.551 358.501 0.551 383.523 0.551 400.374 0.551 443.267 13.827 508.629 75.016 606.803 141.053 682.269 254.849 755.778 356.976 803.778 423.359 831.352 590.849 872.203 755.274 886.501 897.232 881.395 1074.934 877.31 1215.87 847.693 1281.785 820.448 1324.125 784.374 1342.508 755.778 1348.636 726.161 1348.636 698.586 1341.487 669.991 1326.168 639.352 1293.487 591.352 1191.359 495.352 1070.849 401.395 954.423 315.608 848.21 241.055 739.955 191.012 655.189 156.289 580.636 125.65 486.357 108.949 397.317 108.949 231.359 150.161 153.742 179.778 105.742 202.246 71.019 239.012 44.466 273.735"/><path class="eb5f93c1-0eb2-427f-96da-d0d6f7c56222" d="M641.91405,598.42,668.48,563.67832l34.74072-36.78565a.25443.25443,0,0,1,.07568-.05469l48-22.46826,77.63379-29.624L994.916,433.525l89.10107-.00733,94.32227,16.70508,74.60449,30.65283,84.76563,34.72315,108.26562,50.04687,106.252,74.57569,116.42968,85.791,120.51563,93.96094,102.14551,96.01562,32.71679,48.041,15.33594,30.668,7.168,28.64648.00781,27.63477-6.13281,29.668a.27012.27012,0,0,1-.03516.085l-18.38281,28.59472a.2191.2191,0,0,1-.04785.05567l-42.34082,36.07422a.27017.27017,0,0,1-.06641.041l-65.915,27.24512L1672.646,1202.37363l-177.748,4.08984-141.95507,5.10645-164.45557-14.29883-167.52686-40.85742L954.54,1128.82675l-102.13769-48.0039-113.82471-73.52539a.27267.27267,0,0,1-.05224-.04492l-66.03711-75.46582-61.21338-98.208a.24911.24911,0,0,1-.03272-.082l-13.27636-65.36133-.00489-84.81592m.49414.05322.00586,84.71289,13.26221,65.26758,61.165,98.13672,65.99023,75.40723,113.76612,73.48925,102.09814,47.9834,66.37256,27.57032,167.45264,40.83886,164.38769,14.292,141.92774-5.10743,177.70507-4.085,140.88965-29.61133,65.835-27.21679,42.28223-36.02442,18.33789-28.52636,6.11816-29.57129-.00488-27.52344-7.1416-28.53516L1923.604,964.28281l-32.66406-47.97168-102.0918-95.9585L1668.355,726.41074,1551.935,640.62705l-106.208-74.54981-108.2168-50.02-84.75586-34.71875-74.55371-30.63818-94.227-16.68652-88.99707.0039-165.897,41.2041L751.4912,504.82968l-47.94,22.44141-34.69091,36.731L642.3242,598.70566" transform="translate(-597.6601 -324.81836)"/><polyline class="bcf25d57-ec14-4ce8-8e95-22f476c97a8d" points="436.596 556.016 401.872 605.548 24.511 352.612 436.596 556.016"/><polyline class="afd3badb-00b2-436f-b117-4128749215d9" points="230.809 149.548 303.319 131.542 24.511 352.612 230.809 149.548"/><polyline class="a038733d-1150-47cf-a67d-9311b797b8cc" points="1058.232 522.055 1058.232 598.65 784.891 508.629 784.891 430.927 1058.232 522.055"/><polyline class="b8453c3b-a0c6-451b-9d4b-6869db9bd765" points="1224.165 771.282 1195.569 815.197 955.207 802.069 997.08 741.814 1224.165 771.282"/><polyline class="fe3345c2-f773-436c-8c57-63081c4c99de" points="141.053 682.269 219.064 701.548 386.553 788.867 550.468 842.995 526.02 856.647 423.359 831.352 258.196 758.229 141.053 682.269"/><polyline class="aa54b28e-ab67-42cc-b5b4-a8fa984fdc95" points="44.466 273.735 24.511 352.612 84.601 223.435 44.466 273.735"/><polyline class="be3405ed-a777-4234-8be8-d9f961ba3f93" points="44.466 273.735 21.41 310.139 24.511 352.612 44.466 273.735"/></g><g id="a8b29864-ca34-4ca1-8db0-ca80cc55ee54" data-name="Layer 1"><path class="fe68ee09-4cd6-4810-a431-70252eb2c437" d="M1182.89639,918.85946" transform="translate(-597.6601 -324.81836)"/><path class="fe68ee09-4cd6-4810-a431-70252eb2c437" d="M1233.17868,880.72812" transform="translate(-597.6601 -324.81836)"/><path class="fe68ee09-4cd6-4810-a431-70252eb2c437" d="M1182.89639,918.85946" transform="translate(-597.6601 -324.81836)"/><path class="fe68ee09-4cd6-4810-a431-70252eb2c437" d="M1182.89639,918.85946" transform="translate(-597.6601 -324.81836)"/><path class="fe68ee09-4cd6-4810-a431-70252eb2c437" d="M1273.891,981.57886" transform="translate(-597.6601 -324.81836)"/><path class="fe68ee09-4cd6-4810-a431-70252eb2c437" d="M1182.89639,918.85946" transform="translate(-597.6601 -324.81836)"/><path class="fe68ee09-4cd6-4810-a431-70252eb2c437" d="M922.446,820.358" transform="translate(-597.6601 -324.81836)"/><path class="fe68ee09-4cd6-4810-a431-70252eb2c437" d="M902.7333,729.9441" transform="translate(-597.6601 -324.81836)"/><path class="fe68ee09-4cd6-4810-a431-70252eb2c437" d="M902.7333,729.9441" transform="translate(-597.6601 -324.81836)"/><path class="fe68ee09-4cd6-4810-a431-70252eb2c437" d="M922.446,820.358" transform="translate(-597.6601 -324.81836)"/><path class="fe68ee09-4cd6-4810-a431-70252eb2c437" d="M1082.53729,740.6525" transform="translate(-597.6601 -324.81836)"/><path class="fe68ee09-4cd6-4810-a431-70252eb2c437" d="M1082.53729,740.6525" transform="translate(-597.6601 -324.81836)"/><path class="fe68ee09-4cd6-4810-a431-70252eb2c437" d="M902.7333,729.9441" transform="translate(-597.6601 -324.81836)"/><path class="fe68ee09-4cd6-4810-a431-70252eb2c437" d="M902.7333,729.9441" transform="translate(-597.6601 -324.81836)"/><path class="fe68ee09-4cd6-4810-a431-70252eb2c437" d="M863.35877,721.04743" transform="translate(-597.6601 -324.81836)"/><path class="fe68ee09-4cd6-4810-a431-70252eb2c437" d="M810.63646,763.198" transform="translate(-597.6601 -324.81836)"/><path class="fe68ee09-4cd6-4810-a431-70252eb2c437" d="M810.63646,763.198" transform="translate(-597.6601 -324.81836)"/><path class="fe68ee09-4cd6-4810-a431-70252eb2c437" d="M863.35877,721.04743" transform="translate(-597.6601 -324.81836)"/><path class="fe68ee09-4cd6-4810-a431-70252eb2c437" d="M810.63646,763.198" transform="translate(-597.6601 -324.81836)"/><path class="fe68ee09-4cd6-4810-a431-70252eb2c437" d="M794.18609,682.86933" transform="translate(-597.6601 -324.81836)"/><path class="fe68ee09-4cd6-4810-a431-70252eb2c437" d="M1023.65294,878.9843" transform="translate(-597.6601 -324.81836)"/><path class="fe68ee09-4cd6-4810-a431-70252eb2c437" d="M1023.65294,878.9843" transform="translate(-597.6601 -324.81836)"/><path class="fe68ee09-4cd6-4810-a431-70252eb2c437" d="M940.688,845.33726" transform="translate(-597.6601 -324.81836)"/><path class="fe68ee09-4cd6-4810-a431-70252eb2c437" d="M871.45186,848.94443" transform="translate(-597.6601 -324.81836)"/><path class="fe68ee09-4cd6-4810-a431-70252eb2c437" d="M866.108,890.97861" transform="translate(-597.6601 -324.81836)"/><path class="fe68ee09-4cd6-4810-a431-70252eb2c437" d="M940.688,845.33726" transform="translate(-597.6601 -324.81836)"/><path class="fe68ee09-4cd6-4810-a431-70252eb2c437" d="M866.108,890.97861" transform="translate(-597.6601 -324.81836)"/><path class="fe68ee09-4cd6-4810-a431-70252eb2c437" d="M866.108,890.97861" transform="translate(-597.6601 -324.81836)"/><path class="fe68ee09-4cd6-4810-a431-70252eb2c437" d="M866.108,890.97861" transform="translate(-597.6601 -324.81836)"/><path class="fe68ee09-4cd6-4810-a431-70252eb2c437" d="M866.108,890.97861" transform="translate(-597.6601 -324.81836)"/><path class="fe68ee09-4cd6-4810-a431-70252eb2c437" d="M871.45186,848.94443" transform="translate(-597.6601 -324.81836)"/><path class="fe68ee09-4cd6-4810-a431-70252eb2c437" d="M871.45186,848.94443" transform="translate(-597.6601 -324.81836)"/><path class="fe68ee09-4cd6-4810-a431-70252eb2c437" d="M871.45186,848.94443" transform="translate(-597.6601 -324.81836)"/><path class="fe68ee09-4cd6-4810-a431-70252eb2c437" d="M780.56123,783.69824" transform="translate(-597.6601 -324.81836)"/><path class="fe68ee09-4cd6-4810-a431-70252eb2c437" d="M650.51116,897.50317" transform="translate(-597.6601 -324.81836)"/><path class="fe68ee09-4cd6-4810-a431-70252eb2c437" d="M780.56123,783.69824" transform="translate(-597.6601 -324.81836)"/><path class="fe68ee09-4cd6-4810-a431-70252eb2c437" d="M650.51116,897.50317" transform="translate(-597.6601 -324.81836)"/><path class="fe68ee09-4cd6-4810-a431-70252eb2c437" d="M806.7172,1033.44452" transform="translate(-597.6601 -324.81836)"/><path class="fe68ee09-4cd6-4810-a431-70252eb2c437" d="M841.03864,1073.66232l-34.32144-40.2178Z" transform="translate(-597.6601 -324.81836)"/><path class="fe68ee09-4cd6-4810-a431-70252eb2c437" d="M747.78776,1013.04428l58.92944,20.40024Z" transform="translate(-597.6601 -324.81836)"/><path class="fe68ee09-4cd6-4810-a431-70252eb2c437" d="M862.69657,720.95794" transform="translate(-597.6601 -324.81836)"/><path class="fe68ee09-4cd6-4810-a431-70252eb2c437" d="M902.7333,729.9441" transform="translate(-597.6601 -324.81836)"/><path class="fe68ee09-4cd6-4810-a431-70252eb2c437" d="M902.7333,729.9441" transform="translate(-597.6601 -324.81836)"/><path class="fe68ee09-4cd6-4810-a431-70252eb2c437" d="M862.69657,720.95794" transform="translate(-597.6601 -324.81836)"/><path class="fe68ee09-4cd6-4810-a431-70252eb2c437" d="M806.73374,500.46055" transform="translate(-597.6601 -324.81836)"/><path class="fe68ee09-4cd6-4810-a431-70252eb2c437" d="M1337.244,518.178" transform="translate(-597.6601 -324.81836)"/><path class="fe68ee09-4cd6-4810-a431-70252eb2c437" d="M1337.244,518.178" transform="translate(-597.6601 -324.81836)"/><path class="fe68ee09-4cd6-4810-a431-70252eb2c437" d="M1450.65687,569.06588" transform="translate(-597.6601 -324.81836)"/><path class="fe68ee09-4cd6-4810-a431-70252eb2c437" d="M1337.244,518.178" transform="translate(-597.6601 -324.81836)"/><path class="fe68ee09-4cd6-4810-a431-70252eb2c437" d="M1616.30452,687.40478" transform="translate(-597.6601 -324.81836)"/><path class="fe68ee09-4cd6-4810-a431-70252eb2c437" d="M1450.65687,569.06588" transform="translate(-597.6601 -324.81836)"/><path class="fe68ee09-4cd6-4810-a431-70252eb2c437" d="M1833.95547,863.60617" transform="translate(-597.6601 -324.81836)"/><path class="fe68ee09-4cd6-4810-a431-70252eb2c437" d="M1070.9656,1167.82332l-36.64489-12.04394Z" transform="translate(-597.6601 -324.81836)"/><path class="fe68ee09-4cd6-4810-a431-70252eb2c437" d="M993.175,1144.32392l41.14574,11.45546Z" transform="translate(-597.6601 -324.81836)"/><path class="fe68ee09-4cd6-4810-a431-70252eb2c437" d="M841.03864,1073.66232" transform="translate(-597.6601 -324.81836)"/><path class="fe68ee09-4cd6-4810-a431-70252eb2c437" d="M993.175,1060.68" transform="translate(-597.6601 -324.81836)"/><path class="fe68ee09-4cd6-4810-a431-70252eb2c437" d="M947.17008,1107.51225" transform="translate(-597.6601 -324.81836)"/><path class="fe68ee09-4cd6-4810-a431-70252eb2c437" d="M855.8566,1083.04733" transform="translate(-597.6601 -324.81836)"/><path class="fe68ee09-4cd6-4810-a431-70252eb2c437" d="M875.06062,1094.59134" transform="translate(-597.6601 -324.81836)"/><path class="fe68ee09-4cd6-4810-a431-70252eb2c437" d="M749.98079,1008.32547" transform="translate(-597.6601 -324.81836)"/><path class="fe68ee09-4cd6-4810-a431-70252eb2c437" d="M662.55076,790.479" transform="translate(-597.6601 -324.81836)"/><path class="fe68ee09-4cd6-4810-a431-70252eb2c437" d="M956.50265,462.64655" transform="translate(-597.6601 -324.81836)"/><path class="fe68ee09-4cd6-4810-a431-70252eb2c437" d="M956.50265,462.64655" transform="translate(-597.6601 -324.81836)"/><path class="fe68ee09-4cd6-4810-a431-70252eb2c437" d="M598.42606,676.39545" transform="translate(-597.6601 -324.81836)"/><polygon class="f9d4e077-8a49-4f49-b62e-5f605347eeb3" points="996.955 741.629 734.849 668.969 761.402 592.374 1030.657 668.969 996.955 741.629"/><polygon class="bddc2b5e-7e96-415b-8eb2-41c76d4f6225" points="24.511 352.612 0 442.655 13.277 508.016 24.511 352.612"/><polygon class="bddc2b5e-7e96-415b-8eb2-41c76d4f6225" points="37.327 546.467 13.277 508.016 24.511 352.612 37.327 546.467"/><path class="fe68ee09-4cd6-4810-a431-70252eb2c437" d="M622.17074,677.43031" transform="translate(-597.6601 -324.81836)"/><polyline class="fe68ee09-4cd6-4810-a431-70252eb2c437" points="24.511 352.612 0 442.655 0 382.91"/><line class="fe68ee09-4cd6-4810-a431-70252eb2c437" y1="382.90982" x2="24.51064" y2="352.61195"/><path class="fe68ee09-4cd6-4810-a431-70252eb2c437" d="M622.17074,677.43031" transform="translate(-597.6601 -324.81836)"/><path class="fe68ee09-4cd6-4810-a431-70252eb2c437" d="M633.4963,610.69678" transform="translate(-597.6601 -324.81836)"/><path class="fe68ee09-4cd6-4810-a431-70252eb2c437" d="M702.85159,526.45158" transform="translate(-597.6601 -324.81836)"/><path class="fe68ee09-4cd6-4810-a431-70252eb2c437" d="M622.96211,621.43031" transform="translate(-597.6601 -324.81836)"/><path class="fe68ee09-4cd6-4810-a431-70252eb2c437" d="M622.17074,677.43031" transform="translate(-597.6601 -324.81836)"/><path class="fe68ee09-4cd6-4810-a431-70252eb2c437" d="M841.92956,471.02376" transform="translate(-597.6601 -324.81836)"/><path class="fe68ee09-4cd6-4810-a431-70252eb2c437" d="M622.17074,677.43031" transform="translate(-597.6601 -324.81836)"/><path class="fe68ee09-4cd6-4810-a431-70252eb2c437" d="M622.17074,677.43031" transform="translate(-597.6601 -324.81836)"/><path class="fe68ee09-4cd6-4810-a431-70252eb2c437" d="M622.17074,677.43031" transform="translate(-597.6601 -324.81836)"/><path class="fe68ee09-4cd6-4810-a431-70252eb2c437" d="M622.17074,677.43031" transform="translate(-597.6601 -324.81836)"/><path class="fe68ee09-4cd6-4810-a431-70252eb2c437" d="M622.17074,677.43031" transform="translate(-597.6601 -324.81836)"/><path class="fe68ee09-4cd6-4810-a431-70252eb2c437" d="M622.17074,677.43031" transform="translate(-597.6601 -324.81836)"/><polygon class="fe68ee09-4cd6-4810-a431-70252eb2c437" points="24.511 352.612 436.596 556.016 401.872 605.548 24.511 352.612"/><polygon class="a120b7f5-0c32-4473-a4b8-1612bc0be85e" points="79.196 612.204 24.511 352.612 37.327 546.467 79.196 612.204"/><polygon class="a120b7f5-0c32-4473-a4b8-1612bc0be85e" points="140.503 681.656 24.511 352.612 79.196 612.204 140.503 681.656"/><polygon class="e925dff4-c028-48b7-aba6-c1460fbbc76b" points="219.064 701.548 24.511 352.612 140.503 681.656 219.064 701.548"/><polygon class="f59b0235-3023-4df9-8330-cea108f4ef95" points="303.319 673.463 219.064 701.548 24.511 352.612 303.319 673.463"/><polygon class="a30aaa4d-f4dc-44e3-b7ab-8a90ac92d602" points="352.851 648.442 303.319 673.463 24.511 352.612 352.851 648.442"/><polygon class="adb4b106-8f9c-489e-bf82-c8fa447ee649" points="401.872 605.548 352.851 648.442 24.511 352.612 401.872 605.548"/><polygon class="ec9c074e-39d3-4cea-b421-e3589ecc6446" points="482.043 430.314 24.511 352.612 464.681 497.112 482.043 430.314"/><polygon class="e7c264a4-c813-4ab5-8588-9526e529d6d7" points="486.638 369.633 24.511 352.612 482.043 430.314 486.638 369.633"/><polygon class="b0d1f823-4a97-4447-b5e7-196a8560ed08" points="479.489 308.867 486.638 369.633 24.511 352.612 479.489 308.867"/><polygon class="b0d1f823-4a97-4447-b5e7-196a8560ed08" points="462.638 249.409 24.511 352.612 479.489 308.867 462.638 249.409"/><polygon class="a08d9517-2395-4dea-8486-2eafa25321e1" points="427.915 205.718 24.511 352.612 462.638 249.409 427.915 205.718"/><polygon class="e7c264a4-c813-4ab5-8588-9526e529d6d7" points="386.553 168.952 24.511 352.612 427.915 205.718 386.553 168.952"/><polyline class="fe68ee09-4cd6-4810-a431-70252eb2c437" points="303.319 131.542 24.511 352.612 230.809 149.548"/><polygon class="b13b2b01-78d9-42fa-bc4e-bfad7f34bbf6" points="24.511 352.612 0 357.889 0 382.91 24.511 352.612"/><polygon class="b13b2b01-78d9-42fa-bc4e-bfad7f34bbf6" points="3.198 343.176 24.511 352.612 0 357.889 3.198 343.176"/><path class="fe68ee09-4cd6-4810-a431-70252eb2c437" d="M609.91542,647.92975" transform="translate(-597.6601 -324.81836)"/><polyline class="a249cb4f-7c98-4da9-8dd3-a0f365c7879c" points="24.511 352.612 3.198 343.176 21.41 310.139 24.511 352.612"/><path class="fe68ee09-4cd6-4810-a431-70252eb2c437" d="M629.91266,619.93863" transform="translate(-597.6601 -324.81836)"/><polyline class="fe68ee09-4cd6-4810-a431-70252eb2c437" points="70.468 238.399 41.096 279.165 24.511 352.612"/><polygon class="a0d07397-541e-4052-b274-6e0153c1d316" points="155.696 178.21 24.511 352.612 84.601 223.435 155.696 178.21"/><polygon class="fea36ee4-a0fa-4e8f-b1a5-33aac40a6e17" points="784.34 508.016 482.043 430.314 464.681 497.112 760.851 591.761 784.34 508.016"/><polygon class="edf22703-3fd2-4d8f-9184-83cc52025d27" points="784.34 430.314 784.34 508.016 482.043 430.314 486.638 369.633 784.34 430.314"/><polygon class="fe68ee09-4cd6-4810-a431-70252eb2c437" points="771.064 350.532 784.34 430.314 486.638 369.633 479.489 308.867 771.064 350.532"/><polygon class="bda7a581-7e7d-49c2-a112-0a6be3da7013" points="740.426 285.878 771.064 350.532 479.489 308.867 462.638 249.409 740.426 285.878"/><polygon class="bdd7c6b6-c292-44d2-8586-f6c6947c3e41" points="427.915 205.718 695.489 214.91 740.426 285.878 462.638 249.409 427.915 205.718"/><polygon class="e925dff4-c028-48b7-aba6-c1460fbbc76b" points="401.872 605.548 674.043 727.591 734.298 668.357 436.596 556.016 401.872 605.548"/><polyline class="fe68ee09-4cd6-4810-a431-70252eb2c437" points="352.851 648.442 401.872 605.548 401.872 605.548"/><polygon class="b0897fc9-4095-44b8-a595-843818400923" points="386.553 788.867 219.064 701.548 303.319 673.463 427.915 760.272 593.362 814.399 550.468 842.995 386.553 788.867"/><polygon class="bdd7c6b6-c292-44d2-8586-f6c6947c3e41" points="624.511 160.782 479.489 155.676 386.553 168.952 427.915 205.718 695.489 214.91 624.511 160.782"/><polygon class="bdd7c6b6-c292-44d2-8586-f6c6947c3e41" points="485.806 108.336 347.234 143.931 386.553 168.952 479.489 155.676 624.511 160.782 485.806 108.336"/><polyline class="fe3345c2-f773-436c-8c57-63081c4c99de" points="616.851 781.718 464.681 714.314 352.851 648.442 303.319 673.463 427.915 760.272 593.362 814.399 616.851 781.718"/><line class="fe68ee09-4cd6-4810-a431-70252eb2c437" x1="996.95494" y1="741.62897" x2="955.0826" y2="801.88429"/><polygon class="b00d6568-5251-4e93-8481-ef00c7c72635" points="941.008 843.496 761.625 824.241 617.625 782.219 674.817 728.092 955.479 801.91 941.008 843.496"/><polygon class="ba3defda-14a0-4dfa-844a-6ad8562e3eaf" points="925.466 867.246 726.38 861.991 593.912 815.012 617.402 782.331 761.402 824.352 940.785 843.608 925.466 867.246"/><polygon class="fe68ee09-4cd6-4810-a431-70252eb2c437" points="784.891 430.927 1058.232 522.055 1058.232 598.65 784.891 508.629 784.891 430.927"/><polygon class="b0897fc9-4095-44b8-a595-843818400923" points="771.615 351.145 1042.912 450.152 1058.232 522.055 784.891 430.927 771.615 351.145"/><polygon class="bddc2b5e-7e96-415b-8eb2-41c76d4f6225" points="740.976 286.491 885.52 334.913 1011.253 377.033 1042.912 450.152 771.615 351.145 740.976 286.491"/><polygon class="a63598c2-2a69-4a74-9c1e-f84dd9cbb245" points="696.04 215.523 858.061 248.884 1001.04 348.507 1011.253 377.033 740.976 286.491 696.04 215.523"/><polygon class="ea78186b-5779-4056-8f94-62363a698313" points="624.511 160.782 728.17 185.293 853.096 241.633 857.511 248.272 695.489 214.91 624.511 160.782"/><polygon class="fe68ee09-4cd6-4810-a431-70252eb2c437" points="1244.466 674.076 1058.232 598.65 1030.657 668.969 1244.466 728.203 1244.466 674.076"/><polyline class="b03b5f45-4e86-4dc1-9d8d-1f79c46337e3" points="1030.657 668.969 996.955 741.629 1154.961 762.133 1170.287 764.122 1224.04 771.097 1244.466 728.203 1030.657 668.969 996.955 741.629 1018.387 695.422"/><polygon class="fe68ee09-4cd6-4810-a431-70252eb2c437" points="955.083 801.884 1090.253 809.906 1195.444 815.012 1224.04 771.097 996.955 741.629 955.083 801.884"/><polygon class="a42ee6ba-961c-4de8-b22f-2a1c61b4b621" points="940.892 843.482 1067.892 861.865 1176.573 855.822 1195.552 814.886 955.347 801.88 940.892 843.482"/><polygon class="fc7bd62b-9180-4110-8dfa-bb52ba22bd85" points="925.466 867.246 1035.125 878.225 1074.934 877.31 1176.466 855.948 1067.785 861.991 940.785 843.608 925.466 867.246"/><polygon class="fe68ee09-4cd6-4810-a431-70252eb2c437" points="551.019 843.608 690.762 880.892 767.349 886.501 1030.657 878.225 925.466 867.246 726.38 861.991 593.912 815.012 551.019 843.608"/><polygon class="b0897fc9-4095-44b8-a595-843818400923" points="924.915 866.633 914.372 881.25 766.798 885.889 690.211 880.279 550.468 842.995 593.362 814.399 725.829 861.378 924.915 866.633"/><polygon class="a0186701-c306-4b9e-ba89-5b4d56203d3b" points="1244.466 619.948 1058.232 522.055 1058.232 598.65 1244.466 674.076 1244.466 619.948"/><polygon class="a55a34be-7de4-49d6-83c8-d90ffe46fe07" points="1231.274 568.749 1244.466 619.948 1058.232 522.055 1042.912 450.152 1231.274 568.749"/><polygon class="fe9f81ce-074c-48d3-bb1e-a09faa3733e3" points="1191.359 495.352 1011.253 377.033 1042.912 450.152 1231.274 568.749 1191.359 495.352"/><polygon class="fe68ee09-4cd6-4810-a431-70252eb2c437" points="1341.487 720.033 1244.466 674.076 1244.466 728.203 1337.912 750.672 1341.487 720.033"/><polygon class="bf4cbf12-7c12-45c2-9c81-57cd37f19fcb" points="1244.466 619.948 1244.466 674.076 1341.487 720.033 1332.295 674.076 1244.466 619.948"/><polygon class="b845e6fc-22c8-4ac9-a87d-b2b884109d62" points="1231.274 568.749 1318.171 627.608 1332.295 674.076 1244.466 619.948 1231.274 568.749"/><polygon class="bf4cbf12-7c12-45c2-9c81-57cd37f19fcb" points="1224.04 771.097 1324.125 784.374 1337.912 750.672 1244.466 728.203 1224.04 771.097"/><polygon class="bf4cbf12-7c12-45c2-9c81-57cd37f19fcb" points="1195.444 815.012 1281.785 820.448 1324.125 784.374 1224.04 771.097 1195.444 815.012"/><polygon class="bf4cbf12-7c12-45c2-9c81-57cd37f19fcb" points="1340.936 719.42 1348.085 725.548 1341.957 755.165 1337.362 750.059 1340.936 719.42"/><polygon class="bf4cbf12-7c12-45c2-9c81-57cd37f19fcb" points="1332.295 674.076 1348.636 698.586 1348.636 726.161 1341.487 718.672 1332.295 674.076"/><path class="fe68ee09-4cd6-4810-a431-70252eb2c437" d="M1079.70265,755.13244" transform="translate(-597.6601 -324.81836)"/><polyline class="fe68ee09-4cd6-4810-a431-70252eb2c437" points="492.766 369.633 489.702 369.591 486.638 369.633 482.043 430.314 535.606 444.082"/><path class="fe68ee09-4cd6-4810-a431-70252eb2c437" d="M1203.61755,787.21754" transform="translate(-597.6601 -324.81836)"/><path class="fe68ee09-4cd6-4810-a431-70252eb2c437" d="M1197.6601,717.558" transform="translate(-597.6601 -324.81836)"/><line class="fe68ee09-4cd6-4810-a431-70252eb2c437" x1="605.95745" y1="462.39919" x2="535.60618" y2="444.08198"/><path class="fe68ee09-4cd6-4810-a431-70252eb2c437" d="M1197.6601,717.558" transform="translate(-597.6601 -324.81836)"/><path class="fe68ee09-4cd6-4810-a431-70252eb2c437" d="M1203.61755,787.21754" transform="translate(-597.6601 -324.81836)"/><line class="fe68ee09-4cd6-4810-a431-70252eb2c437" x1="784.34043" y1="430.31408" x2="784.34043" y2="508.01621"/><path class="fe68ee09-4cd6-4810-a431-70252eb2c437" d="M1323.44243,743.19649" transform="translate(-597.6601 -324.81836)"/><polyline class="fe68ee09-4cd6-4810-a431-70252eb2c437" points="0.551 358.501 0.551 383.523 0.551 400.374 0.551 443.267 13.827 508.629 75.016 606.803 141.053 682.269 254.849 755.778 356.976 803.778 423.359 831.352 590.849 872.203 755.274 886.501 897.232 881.395 1074.934 877.31 1215.87 847.693 1281.785 820.448 1324.125 784.374 1342.508 755.778 1348.636 726.161 1348.636 698.586 1341.487 669.991 1326.168 639.352 1293.487 591.352 1191.359 495.352 1070.849 401.395 954.423 315.608 848.21 241.055 739.955 191.012 655.189 156.289 580.636 125.65 486.357 108.949 397.317 108.949 231.359 150.161 153.742 179.778 105.742 202.246 71.019 239.012 44.466 273.735"/><polygon class="ec9c074e-39d3-4cea-b421-e3589ecc6446" points="303.319 131.542 347.234 143.931 24.511 352.612 303.319 131.542"/><polygon class="fdecf3be-cd36-4958-ab60-d5d3b003c52b" points="464.681 497.112 436.596 556.016 734.298 668.357 760.851 591.761 464.681 497.112"/><polygon class="bddc2b5e-7e96-415b-8eb2-41c76d4f6225" points="674.043 727.591 616.851 781.718 464.681 714.314 352.851 648.442 401.872 605.548 674.043 727.591"/><polygon class="bda7a581-7e7d-49c2-a112-0a6be3da7013" points="479.489 308.867 486.638 369.633 784.34 430.314 771.064 350.532 479.489 308.867"/><polygon class="a08d9517-2395-4dea-8486-2eafa25321e1" points="347.234 143.931 386.553 168.952 24.511 352.612 347.234 143.931"/><polygon class="eab5b1e4-5ac9-4eb7-958c-55f8e06a034d" points="230.809 149.548 155.696 178.21 24.511 352.612 230.809 149.548"/><polygon class="f632c6ec-e7d5-453f-881e-bf6b57735fe4" points="464.681 497.112 436.596 556.016 24.511 352.612 464.681 497.112"/><polygon class="bdd7c6b6-c292-44d2-8586-f6c6947c3e41" points="396.766 108.336 485.806 108.336 347.234 143.931 303.319 131.542 396.766 108.336"/><polygon class="e66dfd5d-9522-4a7d-bdcf-c14d9a4d3ab6" points="784.891 508.629 761.402 592.374 1030.657 668.969 1058.232 598.65 784.891 508.629"/><polygon class="b148834d-a131-4ace-a7fe-91b3aa9ec4e3" points="735.005 669.091 674.75 728.325 955.239 802.006 997.112 741.75 735.005 669.091"/><polygon class="b00d6568-5251-4e93-8481-ef00c7c72635" points="550.468 842.995 523.915 855.655 590.298 871.591 690.211 880.279 550.468 842.995"/><polygon class="bdd7c6b6-c292-44d2-8586-f6c6947c3e41" points="580.085 125.037 485.806 108.336 624.511 160.782 728.17 185.293 580.085 125.037"/><polygon class="e6452a1e-5cce-4622-8b19-09e44531d20c" points="1244.466 674.076 1244.466 728.203 1030.657 668.969 1058.232 598.65 1244.466 674.076"/><polygon class="a136209a-6164-450f-a81b-002267e45fe1" points="925.466 867.246 914.923 881.863 1035.125 878.225 925.466 867.246"/><polygon class="e55304a2-b64f-4856-ab97-69e8badac709" points="1001.04 348.507 1011.253 377.033 1191.359 495.352 1001.04 348.507"/><polygon class="b4117652-91e6-420a-85ae-4ab770b5faec" points="1231.274 568.749 1191.359 495.352 1293.487 591.352 1318.171 627.608 1231.274 568.749"/><polygon class="bf4cbf12-7c12-45c2-9c81-57cd37f19fcb" points="1244.466 674.076 1244.466 728.203 1337.912 750.672 1341.487 720.033 1244.466 674.076"/><polygon class="bf4cbf12-7c12-45c2-9c81-57cd37f19fcb" points="1195.444 815.012 1176.466 855.948 1215.87 847.693 1281.785 820.448 1195.444 815.012"/><polygon class="bf4cbf12-7c12-45c2-9c81-57cd37f19fcb" points="1337.912 750.672 1324.125 784.374 1342.508 755.778 1337.912 750.672"/><polygon class="bf4cbf12-7c12-45c2-9c81-57cd37f19fcb" points="1318.171 627.608 1332.295 674.076 1348.636 698.586 1341.487 669.991 1326.168 639.352 1318.171 627.608"/><polygon class="b8bc3d2b-298a-475c-b9bc-05973ba1c00c" points="24.511 352.612 0 382.91 0 442.655 24.511 352.612"/></g><g id="b9b53fbc-2479-4965-8756-cf37f0e6938a" data-name="carggo"><path class="ad484280-5b1f-45d6-b62b-e32a0403a830" d="M1067.66405,1277.76736c67.16789,13.27821,242.40747-11.9876,242.40747-11.9876l121.242-19.1205a10.40906,10.40906,0,0,0,1.06894-.22684l164.39922-29.40513c5.92159-1.05916,10.64128-6.52308,11.75676-13.61064l3.60916-22.93187c1.41883-9.01491-3.37983-17.73928-10.81935-19.67055l-219.354-56.94328-94.23628-21.946s-2.13326-.59443-5.05639-1.51273c-21.87037-6.87056-117.8158-31.78881-152.10626-41.33332-20.81855-5.7947-57.79688-7.76389-83.68735-8.41624-16.35049-.412-29.89738,15.21655-30.3053,34.91781C1015.21667,1131.5512,1018.41848,1268.03216,1067.66405,1277.76736Z" transform="translate(-597.6601 -324.81836)"/><path class="a84af963-be6b-41bb-9e1c-4afeff873c46" d="M998.80788,1092.527" transform="translate(-597.6601 -324.81836)"/><g class="b88ef069-7c1b-4421-9bc9-bcff9ea85012"><g class="b6f781f0-638e-449b-a209-3b3ec0eddd19"><path class="b224140a-0205-43da-8fd1-33e6769ad8c2" d="M1117.2883,1011.8504l-1.60085,71.51615c-.28335,12.65812,6.01851,23.361,14.21036,24.13441l101.90861,9.62171c8.71132.82247,16.069-9.85872,16.069-23.32754v-46.08971" transform="translate(-597.6601 -324.81836)"/><polygon class="b224140a-0205-43da-8fd1-33e6769ad8c2" points="1017.48 855.852 417.905 852.113 417.905 838.242 1018.974 843.164 1017.48 855.852"/></g><path class="b224140a-0205-43da-8fd1-33e6769ad8c2" d="M713.38141,796.09107h82.15873a20.02951,20.02951,0,0,1,20.02951,20.02951v28.24555a0,0,0,0,1,0,0H693.35191a0,0,0,0,1,0,0V816.12057A20.02951,20.02951,0,0,1,713.38141,796.09107Z"/></g></g><g id="b5f0f0fa-044c-44d3-9f7c-9d97464b0d3b" data-name="down right ring"><path class="eca54ada-f3e7-4ed0-a514-bf806b465f8e" d="M1598.25029,406.90264l-65.25024,81.09594c137.02649,77.50775,229.51965,224.56159,229.51965,393.22406,0,249.33716-202.12769,451.46485-451.46491,451.46485a453.83158,453.83158,0,0,1-85.165-8.02777L1169.996,1431.23314a562.67422,562.67422,0,0,0,135.81256,16.54529c310.09692,0,561.48-251.38318,561.48-561.48C1867.2885,683.34105,1759.60051,505.54051,1598.25029,406.90264Z" transform="translate(-597.6601 -324.81836)"/></g></svg>
